<svg width="147" height="53" viewBox="0 0 147 53" fill="none" xmlns="http://www.w3.org/2000/svg">
<path d="M70.0117 49.3505C77.1798 49.3505 82.273 45.6148 82.273 39.3109C82.273 32.4 76.6611 30.6723 71.6622 29.178C66.5219 27.6371 65.7202 26.6098 65.7202 25.1155C65.7202 23.8081 66.8992 22.6407 69.2571 22.6407C72.2753 22.6407 73.8315 24.0882 74.9633 26.423L81.3298 22.7341C78.9247 17.9244 74.6804 15.3562 69.2571 15.3562C63.5509 15.3562 58.1747 18.9984 58.1747 25.3023C58.1747 31.5595 62.985 33.8943 67.8895 35.2484C72.8412 36.6026 74.7276 37.3964 74.7276 39.4043C74.7276 40.6651 73.8315 42.066 70.2474 42.066C66.5219 42.066 64.494 40.2448 63.3151 37.5365L56.8071 41.2721C58.6463 46.0818 63.0793 49.3505 70.0117 49.3505Z" fill="white"/>
<path d="M99.1731 16.0099H85.9686V48.6967H99.1731C108.275 48.6967 115.207 41.599 115.207 32.3533C115.207 23.1076 108.275 16.0099 99.1731 16.0099ZM99.1731 41.5056H93.514V23.201H99.1731C104.361 23.201 107.945 26.7499 107.945 32.3533C107.945 37.9568 104.361 41.5056 99.1731 41.5056Z" fill="white"/>
<path d="M146.297 48.6967L134.695 31.9331L145.825 16.0099H137.242L127.15 30.2053V16.0099H119.605V48.6967H127.15V33.5674L137.714 48.6967H146.297Z" fill="white"/>
<path fill-rule="evenodd" clip-rule="evenodd" d="M17.9498 7.80269L22.4854 0.0627654C22.5819 -0.0327891 22.775 -0.0327891 22.8715 0.15832L45.3567 38.3801C45.4532 38.3801 45.4532 38.4757 45.3567 38.5713L32.4253 52.9044C32.3699 52.9593 32.3463 52.9827 32.318 52.9926C32.297 53 32.2734 53 32.2323 53H21.7134C21.5204 53 21.4239 52.8089 21.5204 52.7133L28.5652 44.8779L35.2239 37.5202V37.329L22.6785 16.0204L17.9498 7.99379V7.80269ZM24.8013 45.26L17.7566 52.9999H17.6601H13.221C13.1244 52.9999 13.0279 52.9044 13.0279 52.9044L0 38.4756V38.2845L16.116 10.9559C16.2126 10.8604 16.4056 10.8604 16.5021 10.9559L21.0377 18.6958V18.8869L10.1328 37.4245C10.0363 37.4245 10.0363 37.5201 10.1328 37.6156L16.6951 44.8778C16.7916 44.9733 16.7916 44.9733 16.8881 44.9733H24.6083C24.8013 44.9733 24.8978 45.1645 24.8013 45.26Z" fill="white"/>
</svg>
